<mxfile host="Electron" agent="Mozilla/5.0 (Macintosh; Intel Mac OS X 10_15_7) AppleWebKit/537.36 (KHTML, like Gecko) draw.io/28.2.8 Chrome/140.0.7339.240 Electron/38.4.0 Safari/537.36" version="28.2.8">
  <diagram name="Page-1" id="D8tJW6pabMMoK23zXHRF">
    <mxGraphModel dx="1216" dy="905" grid="1" gridSize="10" guides="1" tooltips="1" connect="1" arrows="1" fold="1" page="1" pageScale="1" pageWidth="850" pageHeight="1100" math="0" shadow="0">
      <root>
        <mxCell id="0" />
        <mxCell id="1" parent="0" />
        <mxCell id="AQT8czb15s8SLYSSE7cW-1" value="&lt;ol style=&quot;box-sizing: border-box; margin: 0px; padding: 0px 0px 0px 2rem; color: rgb(33, 37, 41); font-family: SFProDisplay; font-size: 16px; font-style: normal; font-variant-ligatures: normal; font-variant-caps: normal; font-weight: 400; letter-spacing: normal; orphans: 2; text-align: start; text-indent: 0px; text-transform: none; widows: 2; word-spacing: 0px; -webkit-text-stroke-width: 0px; white-space: normal; background-color: rgb(255, 255, 255); text-decoration-thickness: initial; text-decoration-style: initial; text-decoration-color: initial; padding-inline-start: 48px;&quot;&gt;&lt;li dir=&quot;ltr&quot; aria-level=&quot;1&quot; style=&quot;box-sizing: border-box; margin: 0px; padding: 0px; background-color: transparent; color: rgb(0, 0, 0); font-family: Arial, sans-serif; font-size: 12pt; font-style: normal; font-variant: normal; font-weight: 400; list-style-type: decimal; text-decoration: none; vertical-align: baseline; white-space: pre;&quot;&gt;&lt;span style=&quot;box-sizing: border-box; margin: 0px; padding: 0px; background-color: transparent; color: rgb(0, 0, 0); font-family: Arial, sans-serif; font-size: 12pt;&quot;&gt;&lt;span style=&quot;box-sizing: border-box; margin: 0px; padding: 0px; font-style: normal; font-variant: normal; font-weight: 400; text-decoration: none; vertical-align: baseline; white-space: pre-wrap;&quot;&gt;Vẽ&amp;nbsp;&lt;/span&gt;&lt;span style=&quot;box-sizing: border-box; margin: 0px; padding: 0px; font-style: normal; font-variant: normal; text-decoration: none; vertical-align: baseline; white-space: pre-wrap;&quot;&gt;&lt;strong style=&quot;box-sizing: border-box; margin: 0px; padding: 0px; font-weight: bolder;&quot;&gt;Sequence Diagram&lt;/strong&gt;&lt;/span&gt;&lt;span style=&quot;box-sizing: border-box; margin: 0px; padding: 0px; font-style: normal; font-variant: normal; font-weight: 400; text-decoration: none; vertical-align: baseline; white-space: pre-wrap;&quot;&gt; cho quá trình đăng ký môn học của sinh viên.&lt;/span&gt;&lt;/span&gt;&lt;/li&gt;&lt;li dir=&quot;ltr&quot; aria-level=&quot;1&quot; style=&quot;box-sizing: border-box; margin: 0px; padding: 0px; background-color: transparent; color: rgb(0, 0, 0); font-family: Arial, sans-serif; font-size: 12pt; font-style: normal; font-variant: normal; font-weight: 400; list-style-type: decimal; text-decoration: none; vertical-align: baseline; white-space: pre;&quot;&gt;&lt;span style=&quot;box-sizing: border-box; margin: 0px; padding: 0px; background-color: transparent; color: rgb(0, 0, 0); font-family: Arial, sans-serif; font-size: 12pt;&quot;&gt;&lt;span style=&quot;box-sizing: border-box; margin: 0px; padding: 0px; font-style: normal; font-variant: normal; font-weight: 400; text-decoration: none; vertical-align: baseline; white-space: pre-wrap;&quot;&gt;Sơ đồ cần thể hiện:&lt;/span&gt;&lt;/span&gt;&lt;ul style=&quot;box-sizing: border-box; margin: 0px; padding: 0px 0px 0px 2rem; list-style: circle; padding-inline-start: 48px;&quot;&gt;&lt;li dir=&quot;ltr&quot; aria-level=&quot;2&quot; style=&quot;box-sizing: border-box; margin: 0px; padding: 0px; background-color: transparent; color: rgb(0, 0, 0); font-family: Arial, sans-serif; font-size: 12pt; font-style: normal; font-variant: normal; font-weight: 400; list-style-type: circle; text-decoration: none; vertical-align: baseline; white-space: pre;&quot;&gt;&lt;span style=&quot;box-sizing: border-box; margin: 0px; padding: 0px; background-color: transparent; color: rgb(0, 0, 0); font-family: Arial, sans-serif; font-size: 12pt;&quot;&gt;&lt;span style=&quot;box-sizing: border-box; margin: 0px; padding: 0px; font-style: normal; font-variant: normal; text-decoration: none; vertical-align: baseline; white-space: pre-wrap;&quot;&gt;&lt;strong style=&quot;box-sizing: border-box; margin: 0px; padding: 0px; font-weight: bolder;&quot;&gt;Sinh viên&lt;/strong&gt;&lt;/span&gt;&lt;span style=&quot;box-sizing: border-box; margin: 0px; padding: 0px; font-style: normal; font-variant: normal; font-weight: 400; text-decoration: none; vertical-align: baseline; white-space: pre-wrap;&quot;&gt; gửi yêu cầu đăng ký môn học.&lt;/span&gt;&lt;/span&gt;&lt;/li&gt;&lt;li dir=&quot;ltr&quot; aria-level=&quot;2&quot; style=&quot;box-sizing: border-box; margin: 0px; padding: 0px; background-color: transparent; color: rgb(0, 0, 0); font-family: Arial, sans-serif; font-size: 12pt; font-style: normal; font-variant: normal; font-weight: 400; list-style-type: circle; text-decoration: none; vertical-align: baseline; white-space: pre;&quot;&gt;&lt;span style=&quot;box-sizing: border-box; margin: 0px; padding: 0px; background-color: transparent; color: rgb(0, 0, 0); font-family: Arial, sans-serif; font-size: 12pt;&quot;&gt;&lt;span style=&quot;box-sizing: border-box; margin: 0px; padding: 0px; font-style: normal; font-variant: normal; text-decoration: none; vertical-align: baseline; white-space: pre-wrap;&quot;&gt;&lt;strong style=&quot;box-sizing: border-box; margin: 0px; padding: 0px; font-weight: bolder;&quot;&gt;Hệ thống&lt;/strong&gt;&lt;/span&gt;&lt;span style=&quot;box-sizing: border-box; margin: 0px; padding: 0px; font-style: normal; font-variant: normal; font-weight: 400; text-decoration: none; vertical-align: baseline; white-space: pre-wrap;&quot;&gt; kiểm tra điều kiện đăng ký.&lt;/span&gt;&lt;/span&gt;&lt;/li&gt;&lt;li dir=&quot;ltr&quot; aria-level=&quot;2&quot; style=&quot;box-sizing: border-box; margin: 0px; padding: 0px; background-color: transparent; color: rgb(0, 0, 0); font-family: Arial, sans-serif; font-size: 12pt; font-style: normal; font-variant: normal; font-weight: 400; list-style-type: circle; text-decoration: none; vertical-align: baseline; white-space: pre;&quot;&gt;&lt;span style=&quot;box-sizing: border-box; margin: 0px; padding: 0px; background-color: transparent; color: rgb(0, 0, 0); font-family: Arial, sans-serif; font-size: 12pt;&quot;&gt;&lt;span style=&quot;box-sizing: border-box; margin: 0px; padding: 0px; font-style: normal; font-variant: normal; font-weight: 400; text-decoration: none; vertical-align: baseline; white-space: pre-wrap;&quot;&gt;Nếu hợp lệ,&amp;nbsp;&lt;/span&gt;&lt;span style=&quot;box-sizing: border-box; margin: 0px; padding: 0px; font-style: normal; font-variant: normal; text-decoration: none; vertical-align: baseline; white-space: pre-wrap;&quot;&gt;&lt;strong style=&quot;box-sizing: border-box; margin: 0px; padding: 0px; font-weight: bolder;&quot;&gt;Hệ thống&lt;/strong&gt;&lt;/span&gt;&lt;span style=&quot;box-sizing: border-box; margin: 0px; padding: 0px; font-style: normal; font-variant: normal; font-weight: 400; text-decoration: none; vertical-align: baseline; white-space: pre-wrap;&quot;&gt; ghi nhận đăng ký và trả lại kết quả cho&amp;nbsp;&lt;/span&gt;&lt;span style=&quot;box-sizing: border-box; margin: 0px; padding: 0px; font-style: normal; font-variant: normal; text-decoration: none; vertical-align: baseline; white-space: pre-wrap;&quot;&gt;&lt;strong style=&quot;box-sizing: border-box; margin: 0px; padding: 0px; font-weight: bolder;&quot;&gt;Sinh viên&lt;/strong&gt;&lt;/span&gt;&lt;span style=&quot;box-sizing: border-box; margin: 0px; padding: 0px; font-style: normal; font-variant: normal; font-weight: 400; text-decoration: none; vertical-align: baseline; white-space: pre-wrap;&quot;&gt;.&lt;/span&gt;&lt;/span&gt;&lt;/li&gt;&lt;/ul&gt;&lt;/li&gt;&lt;/ol&gt;" style="text;whiteSpace=wrap;html=1;" vertex="1" parent="1">
          <mxGeometry x="40" y="60" width="560" height="160" as="geometry" />
        </mxCell>
        <mxCell id="AQT8czb15s8SLYSSE7cW-3" value="hệ thống" style="shape=umlLifeline;perimeter=lifelinePerimeter;whiteSpace=wrap;html=1;container=1;dropTarget=0;collapsible=0;recursiveResize=0;outlineConnect=0;portConstraint=eastwest;newEdgeStyle={&quot;curved&quot;:0,&quot;rounded&quot;:0};" vertex="1" parent="1">
          <mxGeometry x="470" y="290" width="100" height="360" as="geometry" />
        </mxCell>
        <mxCell id="AQT8czb15s8SLYSSE7cW-4" value="" style="html=1;points=[[0,0,0,0,5],[0,1,0,0,-5],[1,0,0,0,5],[1,1,0,0,-5]];perimeter=orthogonalPerimeter;outlineConnect=0;targetShapes=umlLifeline;portConstraint=eastwest;newEdgeStyle={&quot;curved&quot;:0,&quot;rounded&quot;:0};" vertex="1" parent="AQT8czb15s8SLYSSE7cW-3">
          <mxGeometry x="45" y="80" width="10" height="80" as="geometry" />
        </mxCell>
        <mxCell id="AQT8czb15s8SLYSSE7cW-5" value="authentication" style="shape=umlLifeline;perimeter=lifelinePerimeter;whiteSpace=wrap;html=1;container=1;dropTarget=0;collapsible=0;recursiveResize=0;outlineConnect=0;portConstraint=eastwest;newEdgeStyle={&quot;curved&quot;:0,&quot;rounded&quot;:0};" vertex="1" parent="1">
          <mxGeometry x="790" y="280" width="100" height="350" as="geometry" />
        </mxCell>
        <mxCell id="AQT8czb15s8SLYSSE7cW-6" value="" style="html=1;points=[[0,0,0,0,5],[0,1,0,0,-5],[1,0,0,0,5],[1,1,0,0,-5]];perimeter=orthogonalPerimeter;outlineConnect=0;targetShapes=umlLifeline;portConstraint=eastwest;newEdgeStyle={&quot;curved&quot;:0,&quot;rounded&quot;:0};" vertex="1" parent="AQT8czb15s8SLYSSE7cW-5">
          <mxGeometry x="45" y="120" width="10" height="230" as="geometry" />
        </mxCell>
        <mxCell id="AQT8czb15s8SLYSSE7cW-7" value="" style="shape=umlLifeline;perimeter=lifelinePerimeter;whiteSpace=wrap;html=1;container=1;dropTarget=0;collapsible=0;recursiveResize=0;outlineConnect=0;portConstraint=eastwest;newEdgeStyle={&quot;curved&quot;:0,&quot;rounded&quot;:0};participant=umlActor;" vertex="1" parent="1">
          <mxGeometry x="200" y="290" width="20" height="360" as="geometry" />
        </mxCell>
        <mxCell id="AQT8czb15s8SLYSSE7cW-8" value="sinh viên" style="text;html=1;whiteSpace=wrap;strokeColor=none;fillColor=none;align=center;verticalAlign=middle;rounded=0;" vertex="1" parent="1">
          <mxGeometry x="150" y="320" width="120" height="30" as="geometry" />
        </mxCell>
        <mxCell id="AQT8czb15s8SLYSSE7cW-9" value="1. sinh viên gửi yêu cầu đăng ký môn học" style="html=1;verticalAlign=bottom;endArrow=block;curved=0;rounded=0;entryX=0;entryY=0;entryDx=0;entryDy=5;" edge="1" parent="1" source="AQT8czb15s8SLYSSE7cW-7" target="AQT8czb15s8SLYSSE7cW-4">
          <mxGeometry relative="1" as="geometry">
            <mxPoint x="325" y="395" as="sourcePoint" />
          </mxGeometry>
        </mxCell>
        <mxCell id="AQT8czb15s8SLYSSE7cW-10" value="2. gửi dữ liệu đăng ký của sinh viên" style="html=1;verticalAlign=bottom;endArrow=block;curved=0;rounded=0;entryX=0;entryY=0;entryDx=0;entryDy=5;" edge="1" parent="1" source="AQT8czb15s8SLYSSE7cW-4" target="AQT8czb15s8SLYSSE7cW-6">
          <mxGeometry relative="1" as="geometry">
            <mxPoint x="590" y="430" as="sourcePoint" />
          </mxGeometry>
        </mxCell>
        <mxCell id="AQT8czb15s8SLYSSE7cW-11" value="alt" style="shape=umlFrame;whiteSpace=wrap;html=1;pointerEvents=0;" vertex="1" parent="1">
          <mxGeometry x="160" y="480" width="750" height="200" as="geometry" />
        </mxCell>
        <mxCell id="AQT8czb15s8SLYSSE7cW-12" value="3.2 thông báo đăng ký môn học thất bại" style="html=1;verticalAlign=bottom;endArrow=open;dashed=1;endSize=8;curved=0;rounded=0;exitX=0;exitY=1;exitDx=0;exitDy=-5;" edge="1" parent="1" source="AQT8czb15s8SLYSSE7cW-6" target="AQT8czb15s8SLYSSE7cW-7">
          <mxGeometry relative="1" as="geometry">
            <mxPoint x="740" y="575" as="targetPoint" />
          </mxGeometry>
        </mxCell>
        <mxCell id="AQT8czb15s8SLYSSE7cW-13" value="3.1 thông báo đăng ký môn học thành công" style="html=1;verticalAlign=bottom;endArrow=open;dashed=1;endSize=8;curved=0;rounded=0;exitX=0;exitY=1;exitDx=0;exitDy=-5;" edge="1" parent="1">
          <mxGeometry relative="1" as="geometry">
            <mxPoint x="207.5" y="540" as="targetPoint" />
            <mxPoint x="832.5" y="540" as="sourcePoint" />
          </mxGeometry>
        </mxCell>
        <mxCell id="AQT8czb15s8SLYSSE7cW-14" value="" style="endArrow=none;dashed=1;html=1;rounded=0;exitX=0.999;exitY=0.47;exitDx=0;exitDy=0;exitPerimeter=0;entryX=-0.001;entryY=0.47;entryDx=0;entryDy=0;entryPerimeter=0;" edge="1" parent="1" source="AQT8czb15s8SLYSSE7cW-11" target="AQT8czb15s8SLYSSE7cW-11">
          <mxGeometry width="50" height="50" relative="1" as="geometry">
            <mxPoint x="490" y="490" as="sourcePoint" />
            <mxPoint x="540" y="440" as="targetPoint" />
          </mxGeometry>
        </mxCell>
      </root>
    </mxGraphModel>
  </diagram>
</mxfile>
